<?xml version="1.0" encoding="UTF-8" standalone="no"?>
<!-- Created with Inkscape (http://www.inkscape.org/) -->

<svg
   xmlns:dc="http://purl.org/dc/elements/1.1/"
   xmlns:cc="http://creativecommons.org/ns#"
   xmlns:rdf="http://www.w3.org/1999/02/22-rdf-syntax-ns#"
   xmlns:svg="http://www.w3.org/2000/svg"
   xmlns="http://www.w3.org/2000/svg"
   xmlns:sodipodi="http://sodipodi.sourceforge.net/DTD/sodipodi-0.dtd"
   xmlns:inkscape="http://www.inkscape.org/namespaces/inkscape"
   width="330.88101mm"
   height="148.64534mm"
   viewBox="0 0 330.88101 148.64534"
   version="1.1"
   id="svg8"
   sodipodi:docname="brand.svg"
   inkscape:version="0.92.3 (unknown)">
  <defs
     id="defs2" />
  <sodipodi:namedview
     id="base"
     pagecolor="#ffffff"
     bordercolor="#666666"
     borderopacity="1.0"
     inkscape:pageopacity="0.0"
     inkscape:pageshadow="2"
     inkscape:zoom="0.70710678"
     inkscape:cx="706.20841"
     inkscape:cy="118.69116"
     inkscape:document-units="mm"
     inkscape:current-layer="layer1"
     showgrid="false"
     inkscape:window-width="1853"
     inkscape:window-height="1019"
     inkscape:window-x="67"
     inkscape:window-y="33"
     inkscape:window-maximized="1"
     fit-margin-top="0"
     fit-margin-left="0"
     fit-margin-right="0"
     fit-margin-bottom="0" />
  <metadata
     id="metadata5">
    <rdf:RDF>
      <cc:Work
         rdf:about="">
        <dc:format>image/svg+xml</dc:format>
        <dc:type
           rdf:resource="http://purl.org/dc/dcmitype/StillImage" />
        <dc:title></dc:title>
      </cc:Work>
    </rdf:RDF>
  </metadata>
  <g
     inkscape:label="Capa 1"
     inkscape:groupmode="layer"
     id="layer1"
     transform="translate(33.69341,49.211979)">
    <g
       id="g83"
       transform="translate(-169.87651,-209.16513)">
      <path
         style="fill:#ce2020;stroke-width:0.08466666"
         d="m 435.65235,308.50154 c -0.98014,-0.15799 -2.19476,-0.42379 -2.2671,-0.49613 -0.0292,-0.0292 -0.0449,-0.19464 -0.0349,-0.36761 0.0356,-0.61252 0.52984,-5.73464 0.56251,-5.8291 0.0222,-0.064 0.50681,-0.10978 1.45782,-0.13762 1.61574,-0.0473 2.08809,-0.14595 3.12221,-0.65202 0.8291,-0.40573 1.66483,-1.14696 2.18011,-1.93355 0.20448,-0.31216 0.73786,-1.25399 1.18528,-2.09296 l 0.81349,-1.52541 -2.54013,-15.31509 c -1.39708,-8.4233 -2.52045,-15.36639 -2.49639,-15.4291 0.0621,-0.1618 8.21561,-0.1698 8.32023,-0.008 0.0377,0.0582 0.56379,4.34568 1.16916,9.52771 0.62393,5.34099 1.13733,9.42799 1.18533,9.43599 0.0466,0.008 2.03508,-4.21303 4.41892,-9.37954 2.38383,-5.16651 4.37488,-9.46033 4.42454,-9.54182 0.0842,-0.13809 0.39255,-0.14817 4.5296,-0.14817 2.4416,0 4.45979,0.0332 4.48486,0.0738 0.0393,0.0636 -18.3088,36.25046 -19.02318,37.51825 -1.97125,3.49834 -4.48206,5.5217 -7.72474,6.22503 -0.89162,0.19339 -2.79927,0.23165 -3.76766,0.0756 z m -24.76501,-0.2972 c -3.00578,-0.36652 -5.93551,-1.6276 -8.09057,-3.48252 -0.81911,-0.70504 -1.47103,-1.46181 -1.38257,-1.60495 0.12116,-0.19604 3.79218,-4.68252 3.88177,-4.74404 0.0492,-0.0338 0.4242,0.27356 0.85004,0.69669 0.91052,0.90471 1.44951,1.31506 2.3159,1.7632 1.37957,0.71357 2.76838,0.99573 4.53323,0.92099 1.30695,-0.0553 2.15156,-0.25169 3.1635,-0.73543 0.85242,-0.40749 1.29838,-0.70891 1.97322,-1.33368 0.95366,-0.88293 1.77842,-2.16278 2.23397,-3.46666 0.1724,-0.49344 0.72385,-2.54305 0.72385,-2.69037 0,-0.13506 -0.23265,-0.006 -0.62256,0.34554 -1.02826,0.92689 -2.48749,1.7787 -3.75705,2.19313 -2.3133,0.75514 -5.1823,0.57036 -7.383,-0.47551 -2.89713,-1.37684 -4.94904,-4.42881 -5.73057,-8.52357 -0.40431,-2.11833 -0.38038,-5.68292 0.0556,-8.28107 1.14508,-6.8241 4.70388,-12.05719 9.48764,-13.95121 2.02116,-0.80023 4.70422,-1.01948 6.92739,-0.56607 1.86553,0.38047 3.09157,1.03549 4.39805,2.34969 0.4828,0.48565 0.90767,0.85131 0.94413,0.81257 0.0365,-0.0387 0.26631,-0.64195 0.51075,-1.34045 0.24444,-0.6985 0.48146,-1.31762 0.52673,-1.37583 0.0636,-0.0817 0.90923,-0.10583 3.71525,-0.10583 3.21662,0 3.63878,0.0152 3.68376,0.13236 0.0474,0.12358 -4.82124,29.15318 -5.27084,31.42763 -0.39697,2.00817 -1.1403,3.82568 -2.24652,5.49286 -0.81367,1.22629 -2.54518,2.96355 -3.79942,3.81203 -2.01099,1.3604 -4.21415,2.21465 -6.73699,2.61217 -1.02173,0.16099 -3.97127,0.23216 -4.90468,0.11833 z m 6.94267,-18.65656 c 1.20361,-0.32191 2.65036,-1.20754 3.56624,-2.18307 l 0.41882,-0.44609 1.21529,-6.63933 1.21531,-6.63933 -0.20217,-0.37877 c -0.49344,-0.92455 -1.58307,-1.82104 -2.59218,-2.13272 -3.38628,-1.04591 -6.54431,0.54708 -8.40674,4.24059 -0.98827,1.95989 -1.4457,4.05986 -1.57524,7.23156 -0.16873,4.13133 1.05268,6.49694 3.65134,7.07186 0.49054,0.10853 2.11721,0.0337 2.70933,-0.1247 z m -210.60834,6.88557 c -2.9212,-0.33565 -5.56432,-1.54936 -7.58872,-3.4847 -1.01834,-0.97354 -1.75291,-1.9558 -2.38834,-3.19369 -1.25392,-2.44278 -1.69656,-4.55438 -1.59625,-7.61485 0.0955,-2.91263 0.49282,-5.03493 1.37215,-7.32882 1.92546,-5.02289 5.54664,-8.69997 9.94716,-10.10072 2.19955,-0.70014 4.90399,-0.8812 7.19666,-0.4818 4.16351,0.72531 7.20593,3.44847 8.63796,7.73155 0.56165,1.67987 0.70376,2.69273 0.70287,5.00997 -8.5e-4,1.75818 -0.0316,2.21552 -0.26629,3.93093 -0.14604,1.06769 -0.29667,1.9724 -0.33473,2.01046 -0.0381,0.0381 -4.35372,0.0789 -9.59034,0.0907 l -9.52113,0.0215 -0.0269,0.37677 c -0.0396,0.55545 0.13402,1.71103 0.36781,2.44809 0.4385,1.38243 1.41751,2.57541 2.62998,3.20479 0.90178,0.46811 1.49597,0.6157 2.70174,0.67111 2.69499,0.12385 5.17245,-0.82536 7.29394,-2.7946 0.3329,-0.30901 0.6261,-0.56183 0.65157,-0.56183 0.0392,0 3.26338,3.96468 3.59851,4.42503 0.0995,0.13669 0.0834,0.20083 -0.127,0.50447 -0.38677,0.55825 -1.37573,1.57932 -2.04813,2.11464 -1.54723,1.23177 -3.83659,2.2724 -6.02455,2.73846 -1.60815,0.34254 -4.00898,0.4639 -5.588,0.28246 z m 8.4521,-19.54773 c 0.0747,-0.2374 0.12369,-0.79582 0.12999,-1.48166 0.009,-0.9531 -0.0174,-1.1851 -0.19539,-1.73043 -0.41466,-1.27068 -1.33064,-2.23242 -2.51593,-2.64164 -0.50596,-0.17468 -0.73417,-0.19976 -1.80677,-0.19855 -1.11566,10e-4 -1.28433,0.022 -1.84867,0.22684 -1.99562,0.72452 -3.45004,2.37013 -4.725,5.34611 -0.15639,0.36502 -0.28433,0.71772 -0.28433,0.78378 0,0.1027 0.80625,0.11695 5.56311,0.0983 l 5.56312,-0.0218 z m 22.11257,19.58614 c -2.92334,-0.29024 -5.21726,-1.29374 -7.08563,-3.09968 -2.09708,-2.02698 -3.25763,-4.38071 -3.8082,-7.72346 -0.22439,-1.36235 -0.20272,-4.53769 0.0423,-6.1995 0.38566,-2.61562 1.0149,-4.76573 1.9553,-6.68128 0.98871,-2.01395 1.94074,-3.32336 3.53572,-4.86302 2.81616,-2.71848 6.32067,-4.01032 10.48283,-3.8642 2.3725,0.0833 4.36988,0.61846 6.00151,1.60801 3.22009,1.95292 5.19047,5.55384 5.24533,9.58599 l 0.0138,1.016 h -3.76767 -3.76767 l -0.0631,-0.7581 c -0.21545,-2.58837 -1.4543,-4.21559 -3.51865,-4.62172 -0.33198,-0.0653 -0.88712,-0.0879 -1.48037,-0.0601 -1.53945,0.072 -2.70483,0.59089 -3.72215,1.65746 -1.17724,1.23421 -1.94603,2.91774 -2.46191,5.39118 -0.41619,1.99544 -0.52114,3.12486 -0.51928,5.588 0.002,2.10131 0.017,2.34072 0.19025,2.96333 0.64564,2.31954 1.96271,3.34434 4.29812,3.34434 1.60513,0 2.77196,-0.45339 3.81326,-1.48167 0.68524,-0.67667 1.11405,-1.36222 1.44283,-2.30663 0.12574,-0.36118 0.26509,-0.70433 0.30968,-0.76254 0.0627,-0.0818 0.92425,-0.10583 3.79868,-0.10583 3.39367,0 3.72235,0.0123 3.77185,0.1413 0.0916,0.23865 -0.21576,1.8724 -0.52748,2.80394 -1.48397,4.43482 -5.6732,7.68143 -10.79087,8.36284 -0.80184,0.10676 -2.61874,0.14182 -3.38852,0.0654 z m 95.56115,-0.0329 c -4.3446,-0.50493 -7.7483,-2.92114 -9.58637,-6.80515 -1.09923,-2.32279 -1.54563,-4.66445 -1.45234,-7.61853 0.10424,-3.30067 0.85491,-6.44428 2.18722,-9.15951 0.90989,-1.85436 1.95613,-3.27555 3.51549,-4.77539 3.00166,-2.88708 6.54192,-4.19802 10.90515,-4.03813 2.20316,0.0807 3.6408,0.41374 5.33803,1.23647 3.51464,1.70371 5.81541,4.85483 6.68206,9.15166 0.8453,4.191 0.0929,9.49754 -1.89429,13.35998 -0.92713,1.80204 -1.90945,3.10803 -3.46786,4.61053 -2.41164,2.3251 -5.303,3.67312 -8.6614,4.03813 -0.92743,0.1008 -2.69814,0.10077 -3.56569,-6e-5 z m 3.83614,-6.8583 c 0.95907,-0.26616 1.71257,-0.70437 2.51141,-1.46053 1.47524,-1.39643 2.50449,-3.47032 3.0334,-6.11208 0.31004,-1.5486 0.40777,-2.81209 0.36197,-4.67972 -0.0353,-1.43944 -0.071,-1.78403 -0.25835,-2.49331 -0.52832,-2.00026 -1.48548,-3.2113 -3.00245,-3.79879 -0.66378,-0.25707 -2.33945,-0.32425 -3.17962,-0.12747 -2.64258,0.61895 -4.69107,3.08686 -5.64191,6.7971 -0.67996,2.65323 -0.79404,6.41014 -0.25483,8.39152 0.52129,1.91546 1.77722,3.23542 3.38997,3.56275 0.2527,0.0513 0.53565,0.11083 0.62879,0.13233 0.3596,0.083 1.80755,-0.0442 2.41162,-0.2118 z m 44.50853,6.8583 c -4.3446,-0.50493 -7.74831,-2.92114 -9.58637,-6.80515 -1.09923,-2.32279 -1.54563,-4.66445 -1.45234,-7.61853 0.10424,-3.30067 0.85491,-6.44428 2.18721,-9.15951 0.9099,-1.85436 1.95614,-3.27555 3.5155,-4.77539 3.00166,-2.88708 6.54192,-4.19802 10.90515,-4.03813 2.20316,0.0807 3.6408,0.41374 5.33803,1.23647 3.51463,1.70371 5.81541,4.85483 6.68206,9.15166 0.8453,4.191 0.0929,9.49754 -1.89429,13.35998 -0.92713,1.80204 -1.90945,3.10803 -3.46786,4.61053 -2.41164,2.3251 -5.303,3.67312 -8.6614,4.03813 -0.92744,0.1008 -2.69815,0.10077 -3.56569,-6e-5 z m 3.83614,-6.8583 c 0.95907,-0.26616 1.71257,-0.70437 2.51141,-1.46053 1.47523,-1.39643 2.50449,-3.47032 3.0334,-6.11208 0.31004,-1.5486 0.40777,-2.81209 0.36197,-4.67972 -0.0353,-1.43944 -0.071,-1.78403 -0.25835,-2.49331 -0.52832,-2.00026 -1.48548,-3.2113 -3.00245,-3.79879 -0.66379,-0.25707 -2.33945,-0.32425 -3.17962,-0.12747 -2.64258,0.61895 -4.69107,3.08686 -5.64191,6.7971 -0.67996,2.65323 -0.79405,6.41014 -0.25483,8.39152 0.52129,1.91546 1.77722,3.23542 3.38997,3.56275 0.2527,0.0513 0.53565,0.11083 0.62879,0.13233 0.3596,0.083 1.80754,-0.0442 2.41162,-0.2118 z m -201.94256,6.73238 c -3.35374,-0.52243 -5.424,-2.68738 -5.96404,-6.23685 -0.24567,-1.61471 -0.18827,-2.11263 1.27537,-11.06313 1.09186,-6.67695 1.31342,-8.1729 1.21929,-8.23254 -0.0633,-0.0401 -1.03895,-0.0735 -2.16819,-0.0742 l -2.05317,-10e-4 v -0.18795 c 0,-0.36254 0.95349,-5.69751 1.03699,-5.80222 0.0635,-0.0796 0.60653,-0.10583 2.18773,-0.10583 1.91758,0 2.11008,-0.0131 2.17981,-0.14817 0.0421,-0.0815 0.35374,-1.76742 0.69261,-3.7465 0.33887,-1.97908 0.65336,-3.64596 0.69886,-3.70417 0.12664,-0.162 8.00771,-0.15345 8.06995,0.009 0.0242,0.063 -0.24489,1.74699 -0.59793,3.74216 -0.35304,1.99516 -0.62287,3.67715 -0.59962,3.73774 0.0334,0.087 0.56693,0.11019 2.53761,0.11019 1.37243,0 2.51259,0.0286 2.53369,0.0635 0.0211,0.0349 -0.19576,1.397 -0.48191,3.02683 l -0.52026,2.96333 -2.56428,0.0423 c -1.90632,0.0315 -2.58084,0.0692 -2.62886,0.14697 -0.13798,0.22357 -2.72701,15.81563 -2.72504,16.41116 0.004,1.09434 0.31367,1.72186 1.0147,2.0537 0.25018,0.11843 0.57554,0.14094 1.97178,0.13643 l 1.67217,-0.005 v 0.31914 c 0,0.17553 -0.1143,1.58613 -0.254,3.13469 -0.1397,1.54856 -0.254,2.82198 -0.254,2.82983 0,0.0387 -0.52438,0.21215 -1.00953,0.33391 -1.45675,0.3656 -3.80409,0.47587 -5.26973,0.24757 z m 72.02533,-0.45812 c -0.0427,-0.069 7.5115,-43.96817 7.61685,-44.26337 0.0295,-0.0827 0.91822,-0.10583 4.0571,-0.10583 2.21063,0 4.03973,0.033 4.06467,0.0734 0.0249,0.0403 -0.66342,3.69949 -1.52969,8.13142 -0.86627,4.43192 -1.55261,8.08047 -1.52519,8.10789 0.0274,0.0274 0.40352,-0.28308 0.83579,-0.68999 1.57765,-1.48514 3.34225,-2.442 5.33966,-2.89546 0.89548,-0.20329 3.1693,-0.20015 4.12541,0.006 1.75614,0.37811 2.88878,0.9757 4.02167,2.12186 0.82645,0.83614 1.31017,1.5917 1.79993,2.81143 0.63037,1.56998 0.93665,3.90056 0.78823,5.9981 -0.0503,0.71068 -0.65097,4.53562 -1.69528,10.795 -0.88958,5.33188 -1.63794,9.76101 -1.66302,9.8425 -0.0426,0.13839 -0.31042,0.14817 -4.05657,0.14817 -2.20603,0 -4.02852,-0.0286 -4.04998,-0.0635 -0.0215,-0.0349 0.72076,-4.57835 1.64936,-10.0965 l 1.68837,-10.033 -0.0336,-1.18534 c -0.0272,-0.95793 -0.069,-1.27701 -0.21777,-1.66326 -0.37385,-0.97039 -0.94952,-1.52391 -1.94132,-1.86662 -0.47928,-0.16561 -0.73367,-0.1952 -1.6663,-0.19384 -1.25178,0.002 -1.82908,0.12344 -2.82959,0.59599 -0.78718,0.37182 -1.59571,0.96746 -2.25401,1.66052 l -0.509,0.53588 -1.93564,11.00667 c -1.0646,6.05366 -1.96978,11.07334 -2.01151,11.15483 -0.0706,0.13793 -0.35034,0.14817 -4.04724,0.14817 -2.42931,0 -3.99075,-0.0314 -4.02128,-0.0808 z m 32.52325,0.0173 c -0.0741,-0.12166 5.36238,-31.12593 5.46979,-31.19415 0.15529,-0.0986 7.40761,-0.0862 7.4688,0.0128 0.0409,0.0662 -0.34324,2.35858 -0.52189,3.11434 -0.0756,0.31999 0.10255,0.21815 0.78421,-0.4482 2.14974,-2.10147 4.56986,-3.17852 7.45134,-3.31617 3.72359,-0.17788 6.45296,1.2806 7.88609,4.21402 0.86766,1.77598 1.25839,4.31163 1.04948,6.81052 -0.0756,0.9036 -3.21263,20.2342 -3.36291,20.72216 -0.0426,0.13839 -0.31047,0.14817 -4.0566,0.14817 -2.20603,0 -4.0286,-0.0286 -4.05013,-0.0635 -0.0215,-0.0349 0.72152,-4.57835 1.65126,-10.0965 1.54562,-9.17349 1.69101,-10.12366 1.69705,-11.09133 0.005,-0.867 -0.0262,-1.15783 -0.17499,-1.60867 -0.49673,-1.50536 -1.69965,-2.23207 -3.69448,-2.23191 -1.88171,0 -3.40215,0.69581 -4.94735,2.26359 l -0.62935,0.63854 -1.91709,10.86206 c -1.0544,5.97413 -1.94349,10.96683 -1.97576,11.09489 l -0.0587,0.23283 h -4.01505 c -2.20829,0 -4.03247,-0.0286 -4.05374,-0.0635 z m 65.86586,-0.007 c -0.0509,-0.0824 7.59616,-44.1337 7.68686,-44.28046 0.0454,-0.0735 1.09986,-0.0992 4.07796,-0.0992 h 4.01668 v 0.19403 c 0,0.28545 -7.58742,44.05007 -7.6562,44.16136 -0.07,0.11329 -8.05554,0.1371 -8.1253,0.0242 z m 4.69016,-49.93517 c -11.90902,-0.86473 -22.47981,-6.96799 -29.01968,-16.7551 -3.32488,-4.97578 -5.51382,-11.03191 -6.04359,-16.72069 -0.15289,-1.64178 -0.20742,-43.18133 -0.0567,-43.17637 0.0607,0.002 0.32684,0.33538 0.59153,0.74084 1.90022,2.91088 5.14416,5.00364 9.25542,5.97094 1.58902,0.37387 2.58925,0.48126 4.48251,0.48126 1.61187,0 1.78562,-0.0147 2.18039,-0.18454 0.23594,-0.10149 1.44315,-0.95938 2.6827,-1.90641 2.83915,-2.16915 3.78476,-2.83503 5.42421,-3.81966 7.60486,-4.56738 19.05167,-8.06872 31.45819,-9.6224 10.84087,-1.35762 23.36548,-1.3091 33.94502,0.13149 4.79434,0.65284 9.87972,1.66975 14.14143,2.82785 2.11627,0.57508 2.60733,0.73546 2.64973,0.86538 0.0493,0.15096 -0.17543,0.17922 -2.17984,0.27414 -3.7056,0.17547 -6.4854,0.89227 -9.73234,2.50958 -3.06582,1.52709 -5.52967,3.34561 -8.09273,5.97309 -2.77279,2.84249 -4.90435,5.88334 -6.72783,9.59781 -1.32086,2.69063 -2.24836,5.26053 -3.05007,8.45105 -0.93469,3.71973 -1.23077,5.92676 -1.39918,10.42961 -0.18507,4.94869 -0.43277,8.45005 -0.71275,10.07534 -0.0882,0.51223 -0.25832,1.55998 -0.37796,2.32833 -0.39533,2.53896 -1.38748,6.01602 -2.42024,8.48193 -2.87743,6.87035 -7.83276,12.83257 -14.0959,16.96006 -4.90718,3.2339 -11.32665,5.46327 -17.18734,5.96886 -1.08983,0.094 -4.94672,0.17339 -5.715,0.11761 z m 4.48733,-13.32596 c 1.9199,-0.11641 3.02627,-0.28743 4.38643,-0.67803 3.24851,-0.93288 5.76317,-2.19 8.44058,-4.21958 1.18385,-0.8974 3.57009,-3.30387 4.46175,-4.49956 1.66922,-2.23839 2.94609,-4.69439 3.80523,-7.31925 0.32741,-1.00027 0.71387,-2.55843 0.83083,-3.34978 0.25222,-1.70652 0.25521,-6.10638 0.005,-7.95763 -0.12129,-0.89886 -0.42131,-2.1026 -0.86305,-3.46268 -1.16482,-3.58642 -3.07981,-6.78252 -5.65464,-9.43754 -3.00333,-3.09687 -6.67726,-5.28319 -10.96753,-6.52668 -1.70012,-0.49276 -2.55593,-0.62561 -4.68288,-0.72694 -1.84031,-0.0877 -4.67679,-0.004 -5.90045,0.17458 -0.78025,0.11371 -2.57148,0.58761 -3.683,0.97438 -6.04892,2.10484 -10.91532,6.2925 -13.70553,11.79394 -1.29284,2.54911 -2.13744,5.09498 -2.43136,7.32883 -0.30818,2.34235 -0.30507,6.00737 0.007,7.79844 1.4053,8.07546 6.60772,14.81039 14.03298,18.16681 2.04215,0.92311 5.14078,1.80887 6.88096,1.96695 0.75565,0.0686 3.72796,0.0532 5.03767,-0.0263 z m -3.45121,-16.85177 c -4.26592,-0.76252 -6.82338,-5.3815 -5.19507,-9.38271 0.57216,-1.40598 1.86216,-2.8152 3.21807,-3.5155 1.10779,-0.57216 1.84973,-0.75142 3.14221,-0.75922 1.1201,-0.007 1.66115,0.0933 2.63803,0.48789 2.78305,1.12412 4.52007,4.06711 4.20943,7.13192 -0.27507,2.71368 -2.30752,5.10298 -4.9993,5.87703 -0.71081,0.20441 -2.29572,0.28887 -3.01337,0.16059 z m 69.74522,28.2247 c -3.60041,-0.20544 -7.29437,-0.99052 -10.37167,-2.2043 -5.81673,-2.29429 -10.05558,-5.98078 -12.69383,-11.03975 -1.66481,-3.19234 -2.46374,-6.38802 -2.56419,-10.25655 l -0.0478,-1.8415 h 7.62483 c 4.19366,0 7.68509,0.0231 7.75875,0.0514 0.11421,0.0438 0.13396,0.24637 0.13416,1.37584 0,0.72844 0.0418,1.66734 0.0927,2.08644 0.21685,1.78767 0.93289,3.76881 1.80122,4.98363 1.93527,2.70752 5.20922,4.10859 9.95921,4.262 3.183,0.1028 5.87445,-0.41133 8.255,-1.57689 3.38739,-1.65854 5.41225,-4.3021 5.92133,-7.7306 0.16585,-1.11688 0.16667,-1.70876 0.004,-2.64342 -0.45747,-2.62329 -2.3389,-4.8063 -5.50168,-6.38358 -0.46567,-0.23223 -3.20439,-1.36022 -6.08607,-2.50665 -6.55653,-2.60842 -8.45122,-3.52513 -11.5669,-5.59639 -3.83841,-2.55174 -6.6465,-5.51777 -8.29154,-8.75791 -1.80552,-3.55624 -2.35045,-7.56103 -1.61294,-11.85386 0.62017,-3.60978 2.14204,-6.88025 4.51114,-9.69433 4.35665,-5.17495 11.92048,-8.71803 20.63335,-9.66519 1.93998,-0.21089 6.20534,-0.21133 7.98535,-8.3e-4 4.37829,0.51778 8.06504,1.72788 11.19165,3.67342 5.67701,3.53255 9.15961,8.84022 10.11381,15.41405 0.14516,1.00006 0.33912,3.45014 0.3417,4.31616 l 8.5e-4,0.27561 -7.72584,-0.0216 -7.72583,-0.0216 -0.0546,-1.43933 c -0.0839,-2.2105 -0.47723,-3.80081 -1.29518,-5.23611 -1.33903,-2.3497 -3.48009,-3.7124 -6.69355,-4.2602 -1.06426,-0.18143 -4.0277,-0.20403 -5.207,-0.0397 -4.0221,0.56041 -7.53928,2.5203 -9.38436,5.2293 -0.5056,0.74234 -1.072,1.98233 -1.33045,2.91269 -0.32553,1.17188 -0.38237,2.75255 -0.1318,3.66589 0.62895,2.29252 2.43967,4.07179 5.78241,5.68197 0.7131,0.34349 3.01104,1.27269 5.10654,2.0649 8.35979,3.16041 12.67003,5.57638 16.32868,9.15249 3.5262,3.44665 5.4617,7.3054 5.98666,11.93542 0.12876,1.13567 0.0554,4.48291 -0.1242,5.6644 -0.73427,4.83123 -2.63096,8.62801 -5.97203,11.95481 -1.89957,1.89145 -3.73003,3.20058 -6.26393,4.4799 -4.01211,2.02563 -8.41555,3.18593 -13.51118,3.56018 -1.07403,0.0789 -4.21177,0.0963 -5.37634,0.0298 z m -281.72007,-1.11403 c -0.0242,-0.0392 2.44771,-14.46744 5.49317,-32.06278 3.04547,-17.59533 5.51824,-32.02221 5.49505,-32.05973 -0.0232,-0.0375 -5.10794,-0.0682 -11.29944,-0.0682 H 136.1831 l 0.0428,-0.1905 c 0.0235,-0.10478 0.52063,-2.91465 1.10469,-6.24417 0.58406,-3.32951 1.09812,-6.13939 1.14236,-6.24416 l 0.0804,-0.1905 h 30.3998 c 24.91251,0 30.40746,0.0199 30.44218,0.1104 0.0422,0.1099 -2.12864,12.54799 -2.21414,12.68633 -0.0247,0.0399 -5.16482,0.0726 -11.42254,0.0726 -6.25772,0 -11.39611,0.0298 -11.41865,0.0663 -0.0225,0.0365 -2.52117,14.40968 -5.55254,31.94049 -3.03136,17.53082 -5.54801,31.95994 -5.59254,32.06471 l -0.081,0.1905 h -7.65915 c -4.21253,0 -7.67897,-0.0321 -7.7032,-0.0713 z m 47.61672,-0.13877 c 0,-0.25384 13.283,-76.75248 13.34429,-76.85166 0.0237,-0.0383 11.29934,-0.0696 25.05704,-0.0696 h 25.01401 l -0.002,0.1905 c -0.002,0.27916 -2.17192,12.4808 -2.23814,12.58795 -0.0397,0.0642 -5.10261,0.0909 -17.27584,0.0909 -9.47082,0 -17.23947,0.032 -17.26367,0.0712 -0.0584,0.0946 -3.18333,17.87838 -3.18333,18.11643 v 0.18504 h 14.72701 c 9.93676,0 14.74439,0.0281 14.78047,0.0865 0.068,0.11011 -2.06849,12.11149 -2.18146,12.25365 -0.0667,0.0839 -3.12024,0.10583 -14.75839,0.10583 -10.1386,0 -14.69125,0.0274 -14.72914,0.0887 -0.0895,0.14478 -3.59763,20.41387 -3.5473,20.49529 0.0264,0.0427 7.41459,0.0747 17.26044,0.0747 13.67135,0 17.23115,0.0218 17.29615,0.10583 0.0549,0.0709 -0.27268,2.13382 -0.99357,6.25751 -0.59148,3.38342 -1.0987,6.21234 -1.12716,6.2865 -0.0472,0.1229 -2.26811,0.13482 -25.11573,0.13482 h -25.06399 z m 59.69001,4.2e-4 c 0,-0.25413 13.28292,-76.75281 13.34428,-76.8521 0.055,-0.0889 17.24495,-0.0784 24.03605,0.0147 2.84057,0.0389 5.54567,0.11355 6.01133,0.16579 4.47249,0.50171 7.6894,1.36821 10.72043,2.88762 6.08084,3.04823 9.63528,7.98097 10.48995,14.55761 0.0514,0.39581 0.11559,1.42451 0.14257,2.286 0.19848,6.33866 -1.63706,12.3124 -5.12502,16.67933 -1.66736,2.08752 -3.81169,3.95434 -6.40659,5.57744 -0.97728,0.61129 -3.45055,1.87052 -4.59317,2.33855 -0.56257,0.23044 -0.78316,0.36207 -0.78316,0.46734 0,0.0806 2.4204,7.1332 5.37867,15.67244 4.72352,13.63471 5.37582,15.57746 5.35517,15.94922 l -0.0235,0.42334 -8.18078,0.0216 c -6.48034,0.0171 -8.19882,-5.1e-4 -8.26753,-0.0847 -0.0477,-0.0584 -2.09131,-6.33558 -4.54134,-13.94923 -2.45003,-7.61365 -4.49145,-13.92873 -4.5365,-14.0335 l -0.0819,-0.1905 h -6.2698 c -4.93969,0 -6.27765,0.0224 -6.30678,0.10583 -0.0203,0.0582 -1.1337,6.41138 -2.47415,14.11817 l -2.43719,14.01233 -7.72552,0.0216 -7.72552,0.0216 z m 36.25436,-40.97941 c 2.14221,-0.25059 3.92276,-0.77244 5.66367,-1.65993 3.70863,-1.89059 6.14398,-5.12258 6.97637,-9.25846 0.44849,-2.22836 0.45168,-4.24643 0.009,-5.98964 -0.71858,-2.83272 -2.83721,-4.87923 -5.85088,-5.65172 -1.6187,-0.41491 -1.95349,-0.43234 -9.36375,-0.48743 -4.59151,-0.0341 -7.01092,-0.0231 -7.04501,0.032 -0.0567,0.0917 -3.94487,22.34609 -3.9765,22.75981 l -0.0194,0.254 2.32833,0.0444 c 5.46428,0.10416 10.1728,0.0862 11.2777,-0.0431 z"
         id="path87"
         inkscape:connector-curvature="0" />
      <path
         style="fill:#4d4d4d;stroke-width:0.08466666"
         d="m 435.65235,308.50154 c -0.98014,-0.15799 -2.19476,-0.42379 -2.2671,-0.49613 -0.0292,-0.0292 -0.0449,-0.19464 -0.0349,-0.36761 0.0356,-0.61252 0.52984,-5.73464 0.56251,-5.8291 0.0222,-0.064 0.50681,-0.10978 1.45782,-0.13762 1.61574,-0.0473 2.08809,-0.14595 3.12221,-0.65202 0.8291,-0.40573 1.66483,-1.14696 2.18011,-1.93355 0.20448,-0.31216 0.73786,-1.25399 1.18528,-2.09296 l 0.81349,-1.52541 -2.54013,-15.31509 c -1.39708,-8.4233 -2.52045,-15.36639 -2.49639,-15.4291 0.0621,-0.1618 8.21561,-0.1698 8.32023,-0.008 0.0377,0.0582 0.56379,4.34568 1.16916,9.52771 0.62393,5.34099 1.13733,9.42799 1.18533,9.43599 0.0466,0.008 2.03508,-4.21303 4.41892,-9.37954 2.38383,-5.16651 4.37488,-9.46033 4.42454,-9.54182 0.0842,-0.13809 0.39255,-0.14817 4.5296,-0.14817 2.4416,0 4.45979,0.0332 4.48486,0.0738 0.0393,0.0636 -18.3088,36.25046 -19.02318,37.51825 -1.97125,3.49834 -4.48206,5.5217 -7.72474,6.22503 -0.89162,0.19339 -2.79927,0.23165 -3.76766,0.0756 z m -24.76501,-0.2972 c -3.00578,-0.36652 -5.93551,-1.6276 -8.09057,-3.48252 -0.81911,-0.70504 -1.47103,-1.46181 -1.38257,-1.60495 0.12116,-0.19604 3.79218,-4.68252 3.88177,-4.74404 0.0492,-0.0338 0.4242,0.27356 0.85004,0.69669 0.91052,0.90471 1.44951,1.31506 2.3159,1.7632 1.37957,0.71357 2.76838,0.99573 4.53323,0.92099 1.30695,-0.0553 2.15156,-0.25169 3.1635,-0.73543 0.85242,-0.40749 1.29838,-0.70891 1.97322,-1.33368 0.95366,-0.88293 1.77842,-2.16278 2.23397,-3.46666 0.1724,-0.49344 0.72385,-2.54305 0.72385,-2.69037 0,-0.13506 -0.23265,-0.006 -0.62256,0.34554 -1.02826,0.92689 -2.48749,1.7787 -3.75705,2.19313 -2.3133,0.75514 -5.1823,0.57036 -7.383,-0.47551 -2.89713,-1.37684 -4.94904,-4.42881 -5.73057,-8.52357 -0.40431,-2.11833 -0.38038,-5.68292 0.0556,-8.28107 1.14508,-6.8241 4.70388,-12.05719 9.48764,-13.95121 2.02116,-0.80023 4.70422,-1.01948 6.92739,-0.56607 1.86553,0.38047 3.09157,1.03549 4.39805,2.34969 0.4828,0.48565 0.90767,0.85131 0.94413,0.81257 0.0365,-0.0387 0.26631,-0.64195 0.51075,-1.34045 0.24444,-0.6985 0.48146,-1.31762 0.52673,-1.37583 0.0636,-0.0817 0.90923,-0.10583 3.71525,-0.10583 3.21662,0 3.63878,0.0152 3.68376,0.13236 0.0474,0.12358 -4.82124,29.15318 -5.27084,31.42763 -0.39697,2.00817 -1.1403,3.82568 -2.24652,5.49286 -0.81367,1.22629 -2.54518,2.96355 -3.79942,3.81203 -2.01099,1.3604 -4.21415,2.21465 -6.73699,2.61217 -1.02173,0.16099 -3.97127,0.23216 -4.90468,0.11833 z m 6.94267,-18.65656 c 1.20361,-0.32191 2.65036,-1.20754 3.56624,-2.18307 l 0.41882,-0.44609 1.21529,-6.63933 1.21531,-6.63933 -0.20217,-0.37877 c -0.49344,-0.92455 -1.58307,-1.82104 -2.59218,-2.13272 -3.38628,-1.04591 -6.54431,0.54708 -8.40674,4.24059 -0.98827,1.95989 -1.4457,4.05986 -1.57524,7.23156 -0.16873,4.13133 1.05268,6.49694 3.65134,7.07186 0.49054,0.10853 2.11721,0.0337 2.70933,-0.1247 z m -84.48252,6.89109 c -4.3446,-0.50493 -7.7483,-2.92114 -9.58637,-6.80515 -1.09923,-2.32279 -1.54563,-4.66445 -1.45234,-7.61853 0.10424,-3.30067 0.85491,-6.44428 2.18722,-9.15951 0.90989,-1.85436 1.95613,-3.27555 3.51549,-4.77539 3.00166,-2.88708 6.54192,-4.19802 10.90515,-4.03813 2.20316,0.0807 3.6408,0.41374 5.33803,1.23647 3.51464,1.70371 5.81541,4.85483 6.68206,9.15166 0.8453,4.191 0.0929,9.49754 -1.89429,13.35998 -0.92713,1.80204 -1.90945,3.10803 -3.46786,4.61053 -2.41164,2.3251 -5.303,3.67312 -8.6614,4.03813 -0.92743,0.1008 -2.69814,0.10077 -3.56569,-6e-5 z m 3.83614,-6.8583 c 0.95907,-0.26616 1.71257,-0.70437 2.51141,-1.46053 1.47524,-1.39643 2.50449,-3.47032 3.0334,-6.11208 0.31004,-1.5486 0.40777,-2.81209 0.36197,-4.67972 -0.0353,-1.43944 -0.071,-1.78403 -0.25835,-2.49331 -0.52832,-2.00026 -1.48548,-3.2113 -3.00245,-3.79879 -0.66378,-0.25707 -2.33945,-0.32425 -3.17962,-0.12747 -2.64258,0.61895 -4.69107,3.08686 -5.64191,6.7971 -0.67996,2.65323 -0.79404,6.41014 -0.25483,8.39152 0.52129,1.91546 1.77722,3.23542 3.38997,3.56275 0.2527,0.0513 0.53565,0.11083 0.62879,0.13233 0.3596,0.083 1.80755,-0.0442 2.41162,-0.2118 z m 44.50853,6.8583 c -4.3446,-0.50493 -7.74831,-2.92114 -9.58637,-6.80515 -1.09923,-2.32279 -1.54563,-4.66445 -1.45234,-7.61853 0.10424,-3.30067 0.85491,-6.44428 2.18721,-9.15951 0.9099,-1.85436 1.95614,-3.27555 3.5155,-4.77539 3.00166,-2.88708 6.54192,-4.19802 10.90515,-4.03813 2.20316,0.0807 3.6408,0.41374 5.33803,1.23647 3.51463,1.70371 5.81541,4.85483 6.68206,9.15166 0.8453,4.191 0.0929,9.49754 -1.89429,13.35998 -0.92713,1.80204 -1.90945,3.10803 -3.46786,4.61053 -2.41164,2.3251 -5.303,3.67312 -8.6614,4.03813 -0.92744,0.1008 -2.69815,0.10077 -3.56569,-6e-5 z m 3.83614,-6.8583 c 0.95907,-0.26616 1.71257,-0.70437 2.51141,-1.46053 1.47523,-1.39643 2.50449,-3.47032 3.0334,-6.11208 0.31004,-1.5486 0.40777,-2.81209 0.36197,-4.67972 -0.0353,-1.43944 -0.071,-1.78403 -0.25835,-2.49331 -0.52832,-2.00026 -1.48548,-3.2113 -3.00245,-3.79879 -0.66379,-0.25707 -2.33945,-0.32425 -3.17962,-0.12747 -2.64258,0.61895 -4.69107,3.08686 -5.64191,6.7971 -0.67996,2.65323 -0.79405,6.41014 -0.25483,8.39152 0.52129,1.91546 1.77722,3.23542 3.38997,3.56275 0.2527,0.0513 0.53565,0.11083 0.62879,0.13233 0.3596,0.083 1.80754,-0.0442 2.41162,-0.2118 z m -97.39398,6.29155 c -0.0741,-0.12166 5.36238,-31.12593 5.46979,-31.19415 0.15529,-0.0986 7.40761,-0.0862 7.4688,0.0128 0.0409,0.0662 -0.34324,2.35858 -0.52189,3.11434 -0.0756,0.31999 0.10255,0.21815 0.78421,-0.4482 2.14974,-2.10147 4.56986,-3.17852 7.45134,-3.31617 3.72359,-0.17788 6.45296,1.2806 7.88609,4.21402 0.86766,1.77598 1.25839,4.31163 1.04948,6.81052 -0.0756,0.9036 -3.21263,20.2342 -3.36291,20.72216 -0.0426,0.13839 -0.31047,0.14817 -4.0566,0.14817 -2.20603,0 -4.0286,-0.0286 -4.05013,-0.0635 -0.0215,-0.0349 0.72152,-4.57835 1.65126,-10.0965 1.54562,-9.17349 1.69101,-10.12366 1.69705,-11.09133 0.005,-0.867 -0.0262,-1.15783 -0.17499,-1.60867 -0.49673,-1.50536 -1.69965,-2.23207 -3.69448,-2.23191 -1.88171,0 -3.40215,0.69581 -4.94735,2.26359 l -0.62935,0.63854 -1.91709,10.86206 c -1.0544,5.97413 -1.94349,10.96683 -1.97576,11.09489 l -0.0587,0.23283 h -4.01505 c -2.20829,0 -4.03247,-0.0286 -4.05374,-0.0635 z m 65.86586,-0.007 c -0.0509,-0.0824 7.59616,-44.1337 7.68686,-44.28046 0.0454,-0.0735 1.09986,-0.0992 4.07796,-0.0992 h 4.01668 v 0.19403 c 0,0.28545 -7.58742,44.05007 -7.6562,44.16136 -0.07,0.11329 -8.05554,0.1371 -8.1253,0.0242 z m 4.69016,-49.93517 c -11.90902,-0.86473 -22.47981,-6.96799 -29.01968,-16.7551 -3.32488,-4.97578 -5.51382,-11.03191 -6.04359,-16.72069 -0.15289,-1.64178 -0.20742,-43.18133 -0.0567,-43.17637 0.0607,0.002 0.32684,0.33538 0.59153,0.74084 1.90022,2.91088 5.14416,5.00364 9.25542,5.97094 1.58902,0.37387 2.58925,0.48126 4.48251,0.48126 1.61187,0 1.78562,-0.0147 2.18039,-0.18454 0.23594,-0.10149 1.44315,-0.95938 2.6827,-1.90641 2.83915,-2.16915 3.78476,-2.83503 5.42421,-3.81966 7.60486,-4.56738 19.05167,-8.06872 31.45819,-9.6224 10.84087,-1.35762 23.36548,-1.3091 33.94502,0.13149 4.79434,0.65284 9.87972,1.66975 14.14143,2.82785 2.11627,0.57508 2.60733,0.73546 2.64973,0.86538 0.0493,0.15096 -0.17543,0.17922 -2.17984,0.27414 -3.7056,0.17547 -6.4854,0.89227 -9.73234,2.50958 -3.06582,1.52709 -5.52967,3.34561 -8.09273,5.97309 -2.77279,2.84249 -4.90435,5.88334 -6.72783,9.59781 -1.32086,2.69063 -2.24836,5.26053 -3.05007,8.45105 -0.93469,3.71973 -1.23077,5.92676 -1.39918,10.42961 -0.18507,4.94869 -0.43277,8.45005 -0.71275,10.07534 -0.0882,0.51223 -0.25832,1.55998 -0.37796,2.32833 -0.39533,2.53896 -1.38748,6.01602 -2.42024,8.48193 -2.87743,6.87035 -7.83276,12.83257 -14.0959,16.96006 -4.90718,3.2339 -11.32665,5.46327 -17.18734,5.96886 -1.08983,0.094 -4.94672,0.17339 -5.715,0.11761 z m 4.48733,-13.32596 c 1.9199,-0.11641 3.02627,-0.28743 4.38643,-0.67803 3.24851,-0.93288 5.76317,-2.19 8.44058,-4.21958 1.18385,-0.8974 3.57009,-3.30387 4.46175,-4.49956 1.66922,-2.23839 2.94609,-4.69439 3.80523,-7.31925 0.32741,-1.00027 0.71387,-2.55843 0.83083,-3.34978 0.25222,-1.70652 0.25521,-6.10638 0.005,-7.95763 -0.12129,-0.89886 -0.42131,-2.1026 -0.86305,-3.46268 -1.16482,-3.58642 -3.07981,-6.78252 -5.65464,-9.43754 -3.00333,-3.09687 -6.67726,-5.28319 -10.96753,-6.52668 -1.70012,-0.49276 -2.55593,-0.62561 -4.68288,-0.72694 -1.84031,-0.0877 -4.67679,-0.004 -5.90045,0.17458 -0.78025,0.11371 -2.57148,0.58761 -3.683,0.97438 -6.04892,2.10484 -10.91532,6.2925 -13.70553,11.79394 -1.29284,2.54911 -2.13744,5.09498 -2.43136,7.32883 -0.30818,2.34235 -0.30507,6.00737 0.007,7.79844 1.4053,8.07546 6.60772,14.81039 14.03298,18.16681 2.04215,0.92311 5.14078,1.80887 6.88096,1.96695 0.75565,0.0686 3.72796,0.0532 5.03767,-0.0263 z m 66.29401,11.37293 c -3.60041,-0.20544 -7.29437,-0.99052 -10.37167,-2.2043 -5.81673,-2.29429 -10.05558,-5.98078 -12.69383,-11.03975 -1.66481,-3.19234 -2.46374,-6.38802 -2.56419,-10.25655 l -0.0478,-1.8415 h 7.62483 c 4.19366,0 7.68509,0.0231 7.75875,0.0514 0.11421,0.0438 0.13396,0.24637 0.13416,1.37584 0,0.72844 0.0418,1.66734 0.0927,2.08644 0.21685,1.78767 0.93289,3.76881 1.80122,4.98363 1.93527,2.70752 5.20922,4.10859 9.95921,4.262 3.183,0.1028 5.87445,-0.41133 8.255,-1.57689 3.38739,-1.65854 5.41225,-4.3021 5.92133,-7.7306 0.16585,-1.11688 0.16667,-1.70876 0.004,-2.64342 -0.45747,-2.62329 -2.3389,-4.8063 -5.50168,-6.38358 -0.46567,-0.23223 -3.20439,-1.36022 -6.08607,-2.50665 -6.55653,-2.60842 -8.45122,-3.52513 -11.5669,-5.59639 -3.83841,-2.55174 -6.6465,-5.51777 -8.29154,-8.75791 -1.80552,-3.55624 -2.35045,-7.56103 -1.61294,-11.85386 0.62017,-3.60978 2.14204,-6.88025 4.51114,-9.69433 4.35665,-5.17495 11.92048,-8.71803 20.63335,-9.66519 1.93998,-0.21089 6.20534,-0.21133 7.98535,-8.3e-4 4.37829,0.51778 8.06504,1.72788 11.19165,3.67342 5.67701,3.53255 9.15961,8.84022 10.11381,15.41405 0.14516,1.00006 0.33912,3.45014 0.3417,4.31616 l 8.5e-4,0.27561 -7.72584,-0.0216 -7.72583,-0.0216 -0.0546,-1.43933 c -0.0839,-2.2105 -0.47723,-3.80081 -1.29518,-5.23611 -1.33903,-2.3497 -3.48009,-3.7124 -6.69355,-4.2602 -1.06426,-0.18143 -4.0277,-0.20403 -5.207,-0.0397 -4.0221,0.56041 -7.53928,2.5203 -9.38436,5.2293 -0.5056,0.74234 -1.072,1.98233 -1.33045,2.91269 -0.32553,1.17188 -0.38237,2.75255 -0.1318,3.66589 0.62895,2.29252 2.43967,4.07179 5.78241,5.68197 0.7131,0.34349 3.01104,1.27269 5.10654,2.0649 8.35979,3.16041 12.67003,5.57638 16.32868,9.15249 3.5262,3.44665 5.4617,7.3054 5.98666,11.93542 0.12876,1.13567 0.0554,4.48291 -0.1242,5.6644 -0.73427,4.83123 -2.63096,8.62801 -5.97203,11.95481 -1.89957,1.89145 -3.73003,3.20058 -6.26393,4.4799 -4.01211,2.02563 -8.41555,3.18593 -13.51118,3.56018 -1.07403,0.0789 -4.21177,0.0963 -5.37634,0.0298 z m -281.72007,-1.11403 c -0.0242,-0.0392 2.44771,-14.46744 5.49317,-32.06278 3.04547,-17.59533 5.51824,-32.02221 5.49505,-32.05973 -0.0232,-0.0375 -5.10794,-0.0682 -11.29944,-0.0682 H 136.1831 l 0.0428,-0.1905 c 0.0235,-0.10478 0.52063,-2.91465 1.10469,-6.24417 0.58406,-3.32951 1.09812,-6.13939 1.14236,-6.24416 l 0.0804,-0.1905 h 30.3998 c 24.91251,0 30.40746,0.0199 30.44218,0.1104 0.0422,0.1099 -2.12864,12.54799 -2.21414,12.68633 -0.0247,0.0399 -5.16482,0.0726 -11.42254,0.0726 -6.25772,0 -11.39611,0.0298 -11.41865,0.0663 -0.0225,0.0365 -2.52117,14.40968 -5.55254,31.94049 -3.03136,17.53082 -5.54801,31.95994 -5.59254,32.06471 l -0.081,0.1905 h -7.65915 c -4.21253,0 -7.67897,-0.0321 -7.7032,-0.0713 z m 47.61672,-0.13877 c 0,-0.25384 13.283,-76.75248 13.34429,-76.85166 0.0237,-0.0383 11.29934,-0.0696 25.05704,-0.0696 h 25.01401 l -0.002,0.1905 c -0.002,0.27916 -2.17192,12.4808 -2.23814,12.58795 -0.0397,0.0642 -5.10261,0.0909 -17.27584,0.0909 -9.47082,0 -17.23947,0.032 -17.26367,0.0712 -0.0584,0.0946 -3.18333,17.87838 -3.18333,18.11643 v 0.18504 h 14.72701 c 9.93676,0 14.74439,0.0281 14.78047,0.0865 0.068,0.11011 -2.06849,12.11149 -2.18146,12.25365 -0.0667,0.0839 -3.12024,0.10583 -14.75839,0.10583 -10.1386,0 -14.69125,0.0274 -14.72914,0.0887 -0.0895,0.14478 -3.59763,20.41387 -3.5473,20.49529 0.0264,0.0427 7.41459,0.0747 17.26044,0.0747 13.67135,0 17.23115,0.0218 17.29615,0.10583 0.0549,0.0709 -0.27268,2.13382 -0.99357,6.25751 -0.59148,3.38342 -1.0987,6.21234 -1.12716,6.2865 -0.0472,0.1229 -2.26811,0.13482 -25.11573,0.13482 h -25.06399 z m 59.69001,4.2e-4 c 0,-0.25413 13.28292,-76.75281 13.34428,-76.8521 0.055,-0.0889 17.24495,-0.0784 24.03605,0.0147 2.84057,0.0389 5.54567,0.11355 6.01133,0.16579 4.47249,0.50171 7.6894,1.36821 10.72043,2.88762 6.08084,3.04823 9.63528,7.98097 10.48995,14.55761 0.0514,0.39581 0.11559,1.42451 0.14257,2.286 0.19848,6.33866 -1.63706,12.3124 -5.12502,16.67933 -1.66736,2.08752 -3.81169,3.95434 -6.40659,5.57744 -0.97728,0.61129 -3.45055,1.87052 -4.59317,2.33855 -0.56257,0.23044 -0.78316,0.36207 -0.78316,0.46734 0,0.0806 2.4204,7.1332 5.37867,15.67244 4.72352,13.63471 5.37582,15.57746 5.35517,15.94922 l -0.0235,0.42334 -8.18078,0.0216 c -6.48034,0.0171 -8.19882,-5.1e-4 -8.26753,-0.0847 -0.0477,-0.0584 -2.09131,-6.33558 -4.54134,-13.94923 -2.45003,-7.61365 -4.49145,-13.92873 -4.5365,-14.0335 l -0.0819,-0.1905 h -6.2698 c -4.93969,0 -6.27765,0.0224 -6.30678,0.10583 -0.0203,0.0582 -1.1337,6.41138 -2.47415,14.11817 l -2.43719,14.01233 -7.72552,0.0216 -7.72552,0.0216 z m 36.25436,-40.97941 c 2.14221,-0.25059 3.92276,-0.77244 5.66367,-1.65993 3.70863,-1.89059 6.14398,-5.12258 6.97637,-9.25846 0.44849,-2.22836 0.45168,-4.24643 0.009,-5.98964 -0.71858,-2.83272 -2.83721,-4.87923 -5.85088,-5.65172 -1.6187,-0.41491 -1.95349,-0.43234 -9.36375,-0.48743 -4.59151,-0.0341 -7.01092,-0.0231 -7.04501,0.032 -0.0567,0.0917 -3.94487,22.34609 -3.9765,22.75981 l -0.0194,0.254 2.32833,0.0444 c 5.46428,0.10416 10.1728,0.0862 11.2777,-0.0431 z"
         id="path85"
         inkscape:connector-curvature="0" />
    </g>
  </g>
</svg>
